<svg width="145" height="172" viewBox="0 0 145 172" fill="none" xmlns="http://www.w3.org/2000/svg">
<circle cx="52" cy="118.5" r="39" fill="#656769" stroke="#45413C" stroke-width="4"/>
<path d="M67.1324 79.4393L66.5953 80.841L67.7912 81.7483L78.7912 90.0934L79.9526 90.9745L81.1469 90.1385L86.1469 86.6385L88.3942 85.0654L86.2092 83.407L72.3759 72.907L70.2527 71.2954L69.2991 73.7844L67.1324 79.4393Z" fill="url(#paint0_linear_0_3)" stroke="#45413C" stroke-width="4" stroke-miterlimit="2.98325"/>
<path d="M79 78.6689C83.2931 75.4572 88.5 68 87.5 58.5" stroke="#45413C" stroke-width="4"/>
<path d="M52 97.5C20.5 97.5 15 116 15 116C15 116 17.5 83 52 81.5C85.5 82.5 89 115.5 89 115.5C89 115.5 83.5 97.5 52 97.5Z" fill="#87898C"/>
<path d="M95.8296 70.235L88.4339 58.2693L72.747 61.427L80.2738 49.7634L74.55 40.9593L84.6141 41.1631L90.7598 29.124L94.3733 39.2755L105.131 39.4932L100.514 44.6127L114.921 53.2451L100.296 55.3817L95.8296 70.235Z" fill="#FF6242" stroke="#45413C" stroke-width="3"/>
<path d="M90.4389 52.1222L94.3571 56.2023L93.9787 50.1934L97.5387 47.2649L94.0596 46.1943L91.6411 42.1445L90.5806 45.1236L85.0615 46.0121L89.4998 49.1026L84.9097 53.5106L90.4389 52.1222Z" fill="#FFE600" stroke="#45413C" stroke-width="2"/>
<path d="M106.642 66.9532L106.49 74.4516L113.56 71.094L106.642 66.9532Z" fill="#FF6242"/>
<path d="M67.0146 48.1473L59.4149 52.9945L59.5869 44.4962L67.0146 48.1473Z" fill="#FF6242"/>
<path d="M101.841 32.3489L101.953 26.8501L109.451 27.0018L101.841 32.3489Z" fill="#FF6242"/>
<path d="M106.642 66.9532L106.49 74.4516L113.56 71.094L106.642 66.9532Z" stroke="#45413C" stroke-width="2"/>
<path d="M67.0146 48.1473L59.4149 52.9945L59.5869 44.4962L67.0146 48.1473Z" stroke="#45413C" stroke-width="2"/>
<path d="M101.841 32.3489L101.953 26.8501L109.451 27.0018L101.841 32.3489Z" stroke="#45413C" stroke-width="2"/>
<defs>
<linearGradient id="paint0_linear_0_3" x1="69" y1="76.5" x2="87.5" y2="88" gradientUnits="userSpaceOnUse">
<stop stop-color="#87898C"/>
<stop offset="0.34365" stop-color="#87898C"/>
<stop offset="0.34375" stop-color="#656769"/>
<stop offset="1" stop-color="#656769"/>
</linearGradient>
</defs>
</svg>
