<svg width="145" height="172" viewBox="0 0 145 172" fill="none" xmlns="http://www.w3.org/2000/svg">
<circle cx="52" cy="118.5" r="39" fill="#656769" stroke="#45413C" stroke-width="4"/>
<path d="M67.1324 79.4393L66.5953 80.841L67.7912 81.7483L78.7912 90.0934L79.9526 90.9745L81.1469 90.1385L86.1469 86.6385L88.3942 85.0654L86.2092 83.4069L72.3759 72.9069L70.2527 71.2954L69.2991 73.7844L67.1324 79.4393Z" fill="url(#paint0_linear_0_3)" stroke="#45413C" stroke-width="4" stroke-miterlimit="2.98325"/>
<path d="M79 78.6689C83.2931 75.4572 88.5 68 87.5 58.5" stroke="#45413C" stroke-width="4"/>
<path d="M52 97.5C20.5 97.5 15 116 15 116C15 116 17.5 83 52 81.5C85.5 82.5 89 115.5 89 115.5C89 115.5 83.5 97.5 52 97.5Z" fill="#87898C"/>
<path d="M100.946 31.7221L97.4888 45.3574L110.666 54.436L97.0495 57.1364L94.7019 67.3717L87.8506 59.997L74.9248 63.9511L79.7082 54.2956L72.3844 46.4123L79.274 46.1708L75.4608 29.8144L87.1653 38.8396L100.946 31.7221Z" fill="#FF6242" stroke="#45413C" stroke-width="3"/>
<path d="M91.6768 48.1906L91.8848 42.5376L87.8293 46.9877L83.2493 46.4654L84.8988 49.7102L83.6699 54.2643L86.5484 52.955L91.0245 56.3038L90.1596 50.9651L96.5192 51.1991L91.6768 48.1906Z" fill="#FFE600" stroke="#45413C" stroke-width="2"/>
<path d="M91.0695 26.2331L96.5642 21.1284L89.2356 18.3822L91.0695 26.2331Z" fill="#FF6242"/>
<path d="M105.107 67.7895L113.875 69.8811L107.648 75.6664L105.107 67.7895Z" fill="#FF6242"/>
<path d="M69.5373 53.7443L65.5079 57.4878L60.4032 51.9931L69.5373 53.7443Z" fill="#FF6242"/>
<path d="M91.0695 26.2331L96.5642 21.1284L89.2356 18.3822L91.0695 26.2331Z" stroke="#45413C" stroke-width="2"/>
<path d="M105.107 67.7895L113.875 69.8811L107.648 75.6664L105.107 67.7895Z" stroke="#45413C" stroke-width="2"/>
<path d="M69.5373 53.7443L65.5079 57.4878L60.4032 51.9931L69.5373 53.7443Z" stroke="#45413C" stroke-width="2"/>
<defs>
<linearGradient id="paint0_linear_0_3" x1="69" y1="76.5" x2="87.5" y2="88" gradientUnits="userSpaceOnUse">
<stop stop-color="#87898C"/>
<stop offset="0.34365" stop-color="#87898C"/>
<stop offset="0.34375" stop-color="#656769"/>
<stop offset="1" stop-color="#656769"/>
</linearGradient>
</defs>
</svg>
